<?xml version="1.0" encoding="utf-8"?>
<!-- Generator: Adobe Illustrator 26.0.3, SVG Export Plug-In . SVG Version: 6.00 Build 0)  -->
<svg version="1.2" baseProfile="tiny-ps" id="Layer_1" xmlns="http://www.w3.org/2000/svg" xmlns:xlink="http://www.w3.org/1999/xlink"
	 viewBox="0 0 200 200" overflow="visible" xml:space="preserve">
<title>Thunder Solutions</title>
<g>
	<path fill="#71B5DB" d="M132,79.6l35.1-3.5c0,0,15.6-33-14.9-28.2c0,0-0.7-31.3-24.3-24.9c-23.6,6.4-34.2,31.7-34.2,31.7
		s-3-5-11.9-1.5C73,56.7,63,65.6,63.3,79.6L16.8,91.9l76.8-8.2c-0.1,2.1-0.4,4.5-1,7.2c-4.3,18.2-10.7,34.3-10.7,34.3l10.3-2.5
		c0,0,0.5,8.2-8.1,20.9c-8.6,12.7-37.5,40.3-36.8,39.9c0,0,47.3-34,66.4-57.2s17.7-31.8,17.7-31.8l-10,1.8c0,0,3.3-4.1,8.6-12.7
		C130.7,82.1,131.4,80.8,132,79.6z"/>
	<g>
		<path fill="#413451" d="M62.8,161.1c2-2.1,4-4.2,5.9-6.3c-14.8-10.1-24.4-26.6-24.4-45.1c0-6.1,1-11.9,2.9-17.4l-13,1.4
			c-0.6,3.6-0.9,7.3-0.9,11C33.4,127.7,44.9,148.2,62.8,161.1z"/>
		<path fill="#413451" d="M55.5,77c1.3-1.7,2.6-3.3,4.1-4.8c2.5-12,11.8-19.7,20.6-23.3c5-2,9-1.9,11.9-0.9c2-3.7,5.4-9,10.3-14.2
			C72,36,46.8,55.4,37.3,81.8L55.5,77z"/>
		<path fill="#413451" d="M173.6,70.6c-1.1,3.5-2.2,6.1-2.6,6.8l-1,2.1l-17,1.7c5.2,8.3,8.3,18.1,8.3,28.5
			c0,30.7-26.2,55.6-58.5,55.6c-7.4,0-14.6-1.3-21.1-3.7c-2.7,2.2-5.3,4.3-7.8,6.3c10.2,5,21.9,7.8,34.2,7.8
			c41.3,0,74.7-31.8,74.7-71C182.8,92.3,179.5,80.7,173.6,70.6z"/>
	</g>
</g>
</svg>
