<svg xmlns="http://www.w3.org/2000/svg" viewBox="0 0 752.37 121.16"><defs><style>.cls-1{fill:#71b5db;}.cls-2{fill:#413451;}</style></defs><g id="Layer_2" data-name="Layer 2"><g id="Layer_1-2" data-name="Layer 1"><path class="cls-1" d="M87,43.21l26.54-2.64s11.82-24.76-11.27-21.21c0,0-.51-23.55-18.33-18.7S58.14,24.44,58.14,24.44s-2.26-3.79-9-1.12-14.26,9.31-14,19.89L0,52.4l58-6.16a27.38,27.38,0,0,1-.77,5.38,205.56,205.56,0,0,1-8.11,25.76l7.75-1.9s.36,6.14-6.13,15.68-28.34,30.29-27.76,30c0,0,35.7-25.57,50.12-42.95S86.43,54.35,86.43,54.35l-7.57,1.36a92.19,92.19,0,0,0,6.49-9.54C86,45.08,86.56,44.09,87,43.21Z"/><path class="cls-2" d="M34.72,104.43c1.51-1.57,3-3.17,4.48-4.75-11.14-7.58-18.4-20-18.4-33.91A39.67,39.67,0,0,1,23,52.7l-9.83,1A51.4,51.4,0,0,0,12.51,62C12.51,79.31,21.22,94.69,34.72,104.43Z"/><path class="cls-2" d="M29.24,41.22a42.2,42.2,0,0,1,3.1-3.59c1.87-9,8.87-14.84,15.55-17.48,3.78-1.5,6.77-1.39,9-.65A54.68,54.68,0,0,1,64.64,8.82c-22.91,1.64-42,16.2-49.13,36Z"/><path class="cls-2" d="M118.45,36.39a38.35,38.35,0,0,1-1.94,5.1l-.77,1.6-12.82,1.28a39.86,39.86,0,0,1,6.23,21.4c0,23.06-19.77,41.75-44.17,41.75A46.33,46.33,0,0,1,49,104.72c-2,1.65-4,3.24-5.9,4.75a58.77,58.77,0,0,0,25.8,5.89c31.17,0,56.44-23.88,56.44-53.34A50.81,50.81,0,0,0,118.45,36.39Z"/><path class="cls-1" d="M178.36,56H163.15V94H148.61V56H133.33V44h45Z"/><path class="cls-1" d="M222.13,94H208V73.15a5.31,5.31,0,0,0-1.3-4,4.58,4.58,0,0,0-3.25-1.23,4.25,4.25,0,0,0-1.6.39,9.55,9.55,0,0,0-1.87,1A9.7,9.7,0,0,0,198.19,71a9.54,9.54,0,0,0-1.34,2.18V94H182.69V42.57h14.16V62.44a13.55,13.55,0,0,1,5.44-4.62,17.53,17.53,0,0,1,7.53-1.58,13.82,13.82,0,0,1,6.57,1.34,9.75,9.75,0,0,1,3.72,3.35,11.3,11.3,0,0,1,1.64,4.33,27.58,27.58,0,0,1,.38,4.37Z"/><path class="cls-1" d="M240.84,94.72q-6,0-9.1-3.42t-3.13-10V56.94h14.17V78.3a5.64,5.64,0,0,0,1.15,3.8,4,4,0,0,0,3.17,1.34,8.84,8.84,0,0,0,3.36-.7,8.67,8.67,0,0,0,3.43-3.1V56.94h14.16V79.21a4.36,4.36,0,0,0,.6,2.65,3,3,0,0,0,2.09.88V94a33,33,0,0,1-6,.71q-7.23,0-8.35-5.15l-.3-1.34a15.74,15.74,0,0,1-6.56,5A23.4,23.4,0,0,1,240.84,94.72Z"/><path class="cls-1" d="M316,94H301.83V73.15a5.27,5.27,0,0,0-1.31-4,4.26,4.26,0,0,0-3-1.23,6.5,6.5,0,0,0-3.8,1.48,8.78,8.78,0,0,0-3,3.8V94H276.55V56.94H289.3v5.5a13.06,13.06,0,0,1,5.85-4.62,23,23,0,0,1,8.91-1.58,12.7,12.7,0,0,1,6.38,1.37A10,10,0,0,1,314,61a12.13,12.13,0,0,1,1.6,4.37,26.72,26.72,0,0,1,.37,4.23Z"/><path class="cls-1" d="M339.25,94.72a19.19,19.19,0,0,1-7.42-1.41,17.12,17.12,0,0,1-5.85-4,18.43,18.43,0,0,1-3.84-6.13,21.4,21.4,0,0,1-1.38-7.79A22.42,22.42,0,0,1,322,67.8a18.67,18.67,0,0,1,3.54-6.1,16,16,0,0,1,12.34-5.46,15.06,15.06,0,0,1,7,1.62,11.7,11.7,0,0,1,4.89,4.58V42.57h14.16V79.21a4.36,4.36,0,0,0,.6,2.65,3,3,0,0,0,2.09.88V94a33,33,0,0,1-6,.71q-7.23,0-8.35-5.15l-.3-1.34a12,12,0,0,1-5.44,4.94A17.6,17.6,0,0,1,339.25,94.72Zm3.88-11.28q3.87,0,6.71-3.8V73a9.51,9.51,0,0,0-3.06-4,6.94,6.94,0,0,0-4.25-1.52,6.5,6.5,0,0,0-5.1,2.4,9.1,9.1,0,0,0-2.05,5.78,7.28,7.28,0,0,0,7.75,7.75Z"/><path class="cls-1" d="M391.74,94.72a25.93,25.93,0,0,1-9.17-1.52,19.64,19.64,0,0,1-6.75-4.12,17.73,17.73,0,0,1-4.13-6A18.17,18.17,0,0,1,370.27,76a21.05,21.05,0,0,1,1.38-7.61,17.33,17.33,0,0,1,4.1-6.27,19.85,19.85,0,0,1,6.71-4.27,28,28,0,0,1,18.53,0,20.17,20.17,0,0,1,6.74,4.23,17.4,17.4,0,0,1,4.1,6.13,20.23,20.23,0,0,1,1.27,9.45c-.07.73-.16,1.37-.26,1.94H385.33a5.14,5.14,0,0,0,2.31,4.26,8.42,8.42,0,0,0,4.55,1.3,9.9,9.9,0,0,0,4.36-1,5.1,5.1,0,0,0,2.72-2.75l12,3.24a18.41,18.41,0,0,1-7.35,7.26A24.32,24.32,0,0,1,391.74,94.72ZM398,71.53a6.73,6.73,0,0,0-2.08-4.23,7,7,0,0,0-8.8,0A6.79,6.79,0,0,0,385,71.53Z"/><path class="cls-1" d="M444.45,68.36a30.2,30.2,0,0,0-7.45.85A9.16,9.16,0,0,0,432,72V94H417.84V56.94h13V64A15.93,15.93,0,0,1,436,58.25a12,12,0,0,1,6.67-2,12.67,12.67,0,0,1,1.79.07Z"/><path class="cls-2" d="M483.15,51.38a16.6,16.6,0,0,0-6.41-4.27,24.8,24.8,0,0,0-8.21-1.23q-8.41,0-12.22,3A9.82,9.82,0,0,0,452.5,57a8.78,8.78,0,0,0,.94,4.27,7.78,7.78,0,0,0,2.87,2.92,18.47,18.47,0,0,0,5,2q3.06.81,7.31,1.66t7.83,1.83a23.65,23.65,0,0,1,6,2.5A11.06,11.06,0,0,1,486.2,76a10.69,10.69,0,0,1,1.35,5.57,11.49,11.49,0,0,1-1.31,5.57,11.23,11.23,0,0,1-3.76,4,18.05,18.05,0,0,1-5.93,2.44,34.52,34.52,0,0,1-7.72.81,32.88,32.88,0,0,1-11.4-1.87,29,29,0,0,1-9.4-5.75L449.6,85a24.89,24.89,0,0,0,8.5,5.43,30,30,0,0,0,10.81,1.83q7.45,0,11.74-2.57a8.55,8.55,0,0,0,4.29-7.86,9.13,9.13,0,0,0-1.05-4.54,8.77,8.77,0,0,0-3.17-3.18,22.38,22.38,0,0,0-5.36-2.25c-2.17-.63-4.71-1.23-7.65-1.8s-5.43-1.15-7.64-1.76A21.13,21.13,0,0,1,454.48,66a9.59,9.59,0,0,1-3.43-3.45,10.34,10.34,0,0,1-1.16-5.14,12.51,12.51,0,0,1,1.35-5.89,12.11,12.11,0,0,1,3.76-4.3,18,18,0,0,1,5.86-2.64,29.42,29.42,0,0,1,7.6-.92,26.32,26.32,0,0,1,9,1.41,20,20,0,0,1,7.08,4.51Z"/><path class="cls-2" d="M512.15,94.72a17.8,17.8,0,0,1-7.34-1.52,19.24,19.24,0,0,1-5.93-4.08,18.5,18.5,0,0,1-3.95-6,19.26,19.26,0,0,1,0-14.59,19.47,19.47,0,0,1,4-6.06,19,19,0,0,1,5.93-4.12,17.64,17.64,0,0,1,7.27-1.52,17.93,17.93,0,0,1,7.31,1.52,18.87,18.87,0,0,1,6,4.12,19.47,19.47,0,0,1,4,6.06,18.69,18.69,0,0,1,1.45,7.33,18.49,18.49,0,0,1-1.45,7.26,19.52,19.52,0,0,1-3.95,6,18.78,18.78,0,0,1-5.93,4.08A18.09,18.09,0,0,1,512.15,94.72ZM496.05,75.9a16.47,16.47,0,0,0,1.26,6.41,17.06,17.06,0,0,0,3.43,5.29,16,16,0,0,0,5.11,3.56,15.19,15.19,0,0,0,6.23,1.3,15,15,0,0,0,6.3-1.34,16.93,16.93,0,0,0,5.14-3.59,16.89,16.89,0,0,0,4.73-11.77,16.68,16.68,0,0,0-9.87-15.36,14.94,14.94,0,0,0-6.23-1.34A14.66,14.66,0,0,0,506,60.4,16.64,16.64,0,0,0,500.85,64a17.65,17.65,0,0,0-3.5,5.35A16.5,16.5,0,0,0,496.05,75.9Z"/><path class="cls-2" d="M540.63,42.57h2.46V87.74A4.14,4.14,0,0,0,544.43,91a5.07,5.07,0,0,0,3.51,1.2,14.41,14.41,0,0,0,2-.17,11.85,11.85,0,0,0,2.13-.53l.59,2a19,19,0,0,1-2.79.63,17.68,17.68,0,0,1-2.87.29,6.43,6.43,0,0,1-4.59-1.66,5.86,5.86,0,0,1-1.75-4.48Z"/><path class="cls-2" d="M570.68,94.72q-6.12,0-9.25-4.16T558.3,78.23V57.37h2.53V78q0,14.51,10.37,14.51a15.47,15.47,0,0,0,5.14-.88A17.52,17.52,0,0,0,581,89.15a17.14,17.14,0,0,0,3.73-3.73,18,18,0,0,0,2.5-4.8V57.37h2.53V90.21c0,1,.45,1.55,1.35,1.55V94a3.18,3.18,0,0,1-.75.07,2.87,2.87,0,0,1-2.09-.88,2.9,2.9,0,0,1-.89-2.15V85a19.11,19.11,0,0,1-16.7,9.73Z"/><path class="cls-2" d="M618.09,92.32l-.74.39a14,14,0,0,1-1.6.7,15,15,0,0,1-2.32.67,13.41,13.41,0,0,1-2.87.29,8.18,8.18,0,0,1-5-1.59,5.25,5.25,0,0,1-2.12-4.48V59.48h-5.52V57.37h5.52V44.75h2.53V57.37h9.17v2.11h-9.17V88a3.93,3.93,0,0,0,1.64,3.1A5.77,5.77,0,0,0,611,92.11a10,10,0,0,0,2.28-.25,13.6,13.6,0,0,0,1.9-.56,12,12,0,0,0,1.34-.6,5.62,5.62,0,0,0,.6-.35Z"/><path class="cls-2" d="M624.88,48.49V42.57h2.53v5.92Zm0,45.52V57.37h2.53V94Z"/><path class="cls-2" d="M655.45,94.72a17.81,17.81,0,0,1-7.35-1.52,19.2,19.2,0,0,1-5.92-4.08,18.69,18.69,0,0,1-4-6,19,19,0,0,1-1.41-7.26,18.69,18.69,0,0,1,1.45-7.33,19.47,19.47,0,0,1,4-6.06,19,19,0,0,1,5.93-4.12,17.61,17.61,0,0,1,7.27-1.52,17.85,17.85,0,0,1,7.3,1.52,18.8,18.8,0,0,1,6,4.12,19.47,19.47,0,0,1,4,6.06,18.69,18.69,0,0,1,1.45,7.33,18.49,18.49,0,0,1-1.45,7.26,19.52,19.52,0,0,1-4,6,18.89,18.89,0,0,1-5.93,4.08A18.09,18.09,0,0,1,655.45,94.72ZM639.34,75.9a16.3,16.3,0,0,0,1.27,6.41A16.88,16.88,0,0,0,644,87.6a15.92,15.92,0,0,0,5.11,3.56,15.15,15.15,0,0,0,6.22,1.3,14.91,14.91,0,0,0,6.3-1.34,16.85,16.85,0,0,0,5.15-3.59,17,17,0,0,0,0-23.54,16.85,16.85,0,0,0-5.15-3.59,14.9,14.9,0,0,0-6.22-1.34,14.66,14.66,0,0,0-6.19,1.34A16.64,16.64,0,0,0,644.15,64a17.65,17.65,0,0,0-3.5,5.35A16.51,16.51,0,0,0,639.34,75.9Z"/><path class="cls-2" d="M714.35,94h-2.54V73.58q0-7.55-2.27-11t-7.2-3.49a15.68,15.68,0,0,0-5.22.91,18.39,18.39,0,0,0-4.8,2.54,19.19,19.19,0,0,0-3.88,3.81A14,14,0,0,0,686,71.11V94h-2.54V57.37h2.46v9.16a17.47,17.47,0,0,1,3-4,18.92,18.92,0,0,1,4-3.07,21.11,21.11,0,0,1,4.73-2,18.76,18.76,0,0,1,5.11-.71q6.12,0,8.84,4.13c1.81,2.74,2.72,6.87,2.72,12.36Z"/><path class="cls-2" d="M737.76,94.72a24.24,24.24,0,0,1-8.35-1.41,18.66,18.66,0,0,1-6.86-4.37L724,87.32a24.06,24.06,0,0,0,6.42,4,19.17,19.17,0,0,0,7.3,1.33,15.87,15.87,0,0,0,8.8-2.18,6.92,6.92,0,0,0,3.36-6.13,5.29,5.29,0,0,0-.86-3.07,7.05,7.05,0,0,0-2.5-2.11,19.29,19.29,0,0,0-4.06-1.55Q740,77,736.86,76.25c-2.13-.47-4-.92-5.55-1.37a16.87,16.87,0,0,1-3.92-1.59A5.91,5.91,0,0,1,725.08,71a7.76,7.76,0,0,1-.74-3.6,9.39,9.39,0,0,1,1.12-4.72,9.64,9.64,0,0,1,3-3.27,13.49,13.49,0,0,1,4.39-1.94,21.33,21.33,0,0,1,5.33-.64,20.22,20.22,0,0,1,8.09,1.48,11.28,11.28,0,0,1,5,3.74l-1.71,1.2A10.34,10.34,0,0,0,744.73,60,20,20,0,0,0,738,58.85a19.75,19.75,0,0,0-4.32.45,10.69,10.69,0,0,0-3.55,1.48,7.85,7.85,0,0,0-2.42,2.58A7.24,7.24,0,0,0,726.8,67a6.07,6.07,0,0,0,.59,2.82,4.66,4.66,0,0,0,1.91,1.87A14.31,14.31,0,0,0,732.58,73c1.31.35,2.91.74,4.8,1.16,2.39.52,4.5,1,6.34,1.55a23.05,23.05,0,0,1,4.7,1.83,8,8,0,0,1,2.94,2.61,7.13,7.13,0,0,1,1,4,9.19,9.19,0,0,1-1,4.4,10.2,10.2,0,0,1-3,3.35A13.71,13.71,0,0,1,743.76,94,23,23,0,0,1,737.76,94.72Z"/></g></g></svg>