<svg width="688" height="289" viewBox="0 0 688 289" fill="none" xmlns="http://www.w3.org/2000/svg">
<path d="M143.5 85V123.5C142.3 125.9 140.667 124.5 140 123.5C140 117.9 135.667 115.5 133.5 115H37.5C42 116 52.9 118.6 60.5 121C68.1 123.4 68.6667 127.667 68 129.5V140.5C68 145.3 72.3333 147.167 74.5 147.5H125C137.4 147.5 142.5 159.833 143.5 166V225.5C143.5 238.3 131.167 244.5 125 246H40C36 246 34.3333 243.333 34 242V205C34 201.8 36.3333 202.667 37.5 203.5C37.5 209.9 42.5 212.167 45 212.5H102C106.8 212.5 109 207.5 109.5 205V189.5C109.5 182.3 104.5 181.167 102 181.5H54.5C40.5 181.5 35 168.5 34 162V102.5C34 85.7 47.6667 81.8333 54.5 82H139C142.2 82 143.333 84 143.5 85Z" fill="url(#paint0_linear_201_2)"/>
<path fill-rule="evenodd" clip-rule="evenodd" d="M280.5 122.5V224.5C280.833 231.5 285.3 245.5 300.5 245.5H370.5C376.5 244 388.5 237.7 388.5 224.5V193C388.667 192.167 388.4 190.5 386 190.5H357C356.167 190.167 354.5 190.2 354.5 193V206C354 208.167 352.1 212.5 348.5 212.5H320.5C318.333 212.167 314 210.4 314 206V149C313.5 146.667 311.1 141.7 305.5 140.5C299.9 139.3 288.5 136.667 283.5 135.5H348.5C350.5 135.833 354.5 138.1 354.5 144.5C354.5 150.9 350.5 153.5 348.5 154C347.5 153.667 345.5 153.5 345.5 155.5C345.5 157.5 347.5 157.333 348.5 157H386C386.833 157.167 388.5 156.8 388.5 154V120.5C387 114.167 381.3 101.5 370.5 101.5H300.5C293.833 102.5 280.5 108.1 280.5 122.5ZM156 225.023V120.523C156 104.923 170.333 101.689 177.5 102.023H246.5C257.3 102.023 263 114.356 264.5 120.523V225.023C264.5 238.623 252.5 244.356 246.5 245.523H177.5C161.9 245.523 156.667 231.856 156 225.023ZM180.5 139.5L159 135H224C229.2 135 230.833 140.333 231 143V204.5C231 209.3 226.333 211.167 224 211.5H197C191.8 211.5 189.833 206.833 189.5 204.5V149.5C189.5 143.9 183.5 140.5 180.5 139.5Z" fill="#0085FF"/>
<path fill-rule="evenodd" clip-rule="evenodd" d="M502.5 29L461.5 76.5H482V222C482 232.4 475.667 241.667 472.5 245C513.3 236.2 522.5 199 522 181.5V76.5H544.5L502.5 29ZM407 91.5C407 87.1 401.667 84.6667 399 84C396.046 82.8001 397.769 82.1667 399 82C413.833 81.8334 444.3 81.6 447.5 82C450.7 82.4 448.833 83.5 447.5 84C443.1 84 441 89 440.5 91.5V207.5C440.5 210.7 443.5 211.5 445 211.5H476V225C476 235.4 470.333 242.667 467.5 245H430C412.4 245 407.333 229.667 407 222V91.5ZM531 84C534 84.5 540 86.7001 540 91.5V237C539.333 238.833 537.3 242.5 534.5 242.5H532.5C531.333 242.833 529.7 243.8 532.5 245H580.5C582.333 244.667 584.9 243.7 580.5 242.5C577.833 242.333 572.5 241 572.5 237V181.5H627.5C634.333 180.5 648 174.6 648 159V103C647.333 96 642.3 82 627.5 82H531C529.833 82.3237 528.2 83.1769 531 84ZM543 116H607.5C609.833 116.167 614.5 117.6 614.5 122V141.5C614.167 143.833 612.3 148.5 607.5 148.5H572.5V130C572.833 127.5 571.5 122.1 563.5 120.5C555.5 118.9 546.5 116.833 543 116Z" fill="#D9D9D9"/>
<defs>
<linearGradient id="paint0_linear_201_2" x1="144" y1="164" x2="34" y2="164" gradientUnits="userSpaceOnUse">
<stop offset="0.140625" stop-color="#D9D9D9"/>
<stop offset="0.666667" stop-color="#0085FF"/>
</linearGradient>
</defs>
</svg>
